<svg width="16" height="16" viewBox="0 0 16 16" fill="none" xmlns="http://www.w3.org/2000/svg">
<path d="M4.23403 4.99017C4.46414 4.9723 4.69316 4.94246 4.92016 4.90077C5.38255 4.80541 5.84196 4.70409 6.30435 4.60277C6.74981 4.5145 7.14645 4.26381 7.41707 3.8995C7.63783 3.6015 7.85858 3.3035 8.0853 3.0055C8.37251 2.61629 8.71292 2.26922 9.0966 1.97443C9.3621 1.77775 10.0751 1.37844 10.1228 1.33672L10.081 1.31884C8.77415 0.910828 7.37626 0.894049 6.05993 1.27057C4.74359 1.6471 3.56646 2.40044 2.67383 3.4376C2.76929 3.5717 3.40769 4.48953 3.61353 4.72197C3.68789 4.81342 3.7829 4.88596 3.89076 4.93361C3.99863 4.98127 4.11627 5.0027 4.23403 4.99613" fill="#1858A8"/>
<path d="M1.18496 6.92204C1.41481 6.51348 1.7797 6.19745 2.21714 6.02805C2.38122 5.96547 2.54827 5.91481 2.70937 5.84925C2.82334 5.80125 2.92107 5.7215 2.9909 5.61952C3.06072 5.51753 3.09969 5.39763 3.10314 5.27412C3.10399 5.13245 3.05428 4.99511 2.96293 4.88673C2.80781 4.68409 2.66462 4.48145 2.49458 4.29073L2.30067 4.05233C2.26785 4.01359 2.22013 4.05233 2.17836 4.08511C1.55451 5.00493 1.15971 6.06033 1.02686 7.16342L1.11933 7.02038L1.179 6.93695" fill="#1858A8"/>
<path d="M1.7279 10.4357C1.9039 10.5728 1.99638 10.5788 2.12764 10.4C2.19625 10.3076 2.2589 10.2122 2.32453 10.1169C2.56524 9.76815 2.83359 9.43929 3.127 9.13348C3.33881 8.91594 3.5536 8.69841 3.76242 8.47789C3.91246 8.32803 4.02352 8.14378 4.08591 7.94121C4.14831 7.73864 4.16015 7.52389 4.1204 7.3157C4.09772 7.17237 4.04509 7.03541 3.96594 6.91373C3.88679 6.79205 3.78289 6.68838 3.66099 6.60945C3.39289 6.44696 3.07325 6.39162 2.76604 6.45449C2.5049 6.50704 2.25596 6.60813 2.03218 6.75249C1.80454 6.88923 1.60261 7.06471 1.43555 7.271C1.20481 7.51924 1.05319 7.83043 1 8.16499C1.00805 8.47735 1.03595 8.78889 1.08353 9.09772C1.16155 9.60045 1.3916 10.0673 1.74281 10.4357" fill="#1858A8"/>
<path d="M12.6045 12.8485C12.4583 12.7889 12.3062 12.7174 12.163 12.6637C11.9694 12.5916 11.7553 12.598 11.5664 12.6816C11.4092 12.7552 11.2602 12.8451 11.1219 12.9498L10.8892 13.1226C9.80639 13.881 8.50917 14.2736 7.18707 14.2431C6.08056 14.203 5.00358 13.8758 4.06206 13.2937C3.12055 12.7116 2.34695 11.8948 1.81736 10.9234L1.62644 10.6254C1.58467 10.5539 1.51606 10.5837 1.56677 10.7536C2.10626 12.0141 3.00457 13.0886 4.15014 13.8435C5.2957 14.5985 6.63803 15.0006 8.01043 15C8.12976 15 8.24908 15 8.36841 15H8.38631L8.68463 14.9792L8.88748 14.9553H8.99786L9.27828 14.9076H9.30811C9.83372 14.8086 10.3462 14.6496 10.8355 14.4338L11.095 14.3116L11.1905 14.264L11.3576 14.1746C11.447 14.1269 11.5336 14.0762 11.6201 14.0226C12.034 13.772 12.4208 13.4794 12.7746 13.1495C12.8104 13.0839 12.8014 12.9975 12.6075 12.8991" fill="#1858A8"/>
<path d="M10.2239 1.84316C9.90952 2.03196 9.61991 2.25919 9.3618 2.51961C9.20667 2.67158 9.06348 2.8176 8.91432 2.9964C8.76516 3.1752 8.616 3.35102 8.49966 3.53578C8.39234 3.67834 8.33472 3.85208 8.33558 4.03045C8.33154 4.08118 8.33856 4.13218 8.35617 4.17993C8.37378 4.22768 8.40155 4.27104 8.43758 4.30703C8.4736 4.34301 8.51701 4.37075 8.56481 4.38834C8.61261 4.40593 8.66367 4.41295 8.71445 4.40891C8.87705 4.40006 9.03814 4.37307 9.19474 4.32845C9.49306 4.25991 9.79137 4.18541 10.1076 4.13177C10.3555 4.09191 10.6055 4.06704 10.8564 4.05727C11.1832 4.03636 11.5113 4.05135 11.8348 4.10197C12.055 4.13561 12.2731 4.18137 12.4882 4.23905C12.7738 4.31475 13.0478 4.42905 13.3026 4.57877C13.5355 4.71965 13.7588 4.87596 13.9708 5.04662C14.0182 5.0886 14.0691 5.12648 14.1229 5.15986C14.1558 5.18072 14.2542 5.13602 14.2661 5.10026C14.2801 5.05301 14.2838 5.00336 14.2771 4.95456C14.2704 4.90577 14.2535 4.85894 14.2273 4.81716L14.1975 4.7516C14.1587 4.6771 14.117 4.60261 14.0752 4.52811C14.067 4.51117 14.057 4.49518 14.0454 4.48043C13.6023 3.73974 13.0352 3.08054 12.3688 2.53153C11.9245 2.17623 11.4387 1.87604 10.922 1.63754C10.6721 1.61515 10.4229 1.68749 10.2239 1.84017" fill="#1858A8"/>
<path d="M13.4162 8.4523C13.6459 7.9308 13.8637 7.40632 14.0874 6.88185C14.1571 6.72162 14.2024 6.55186 14.2217 6.37824C14.2308 6.24853 14.2141 6.1183 14.1727 5.99505C14.1312 5.8718 14.0657 5.75795 13.9801 5.66006C13.8087 5.45895 13.5974 5.29557 13.3595 5.18029C12.8922 4.95293 12.3862 4.81545 11.868 4.77501C11.6617 4.75666 11.4546 4.7487 11.2475 4.75117C11.1013 4.75117 10.9491 4.75117 10.806 4.75117C10.5613 4.76607 10.3167 4.77799 10.0721 4.80779C9.82747 4.83759 9.556 4.88229 9.29945 4.93593C8.87443 5.02389 8.46968 5.19067 8.10618 5.42763C7.86664 5.59352 7.64205 5.77997 7.43497 5.98488L6.92186 6.48253C6.73129 6.65542 6.56831 6.85641 6.43859 7.07853C6.30432 7.31962 6.25793 7.59977 6.30733 7.8712C6.35388 8.11682 6.47101 8.34359 6.64443 8.52382C6.82938 8.72645 7.02627 8.91717 7.22316 9.10491C7.53926 9.39934 7.87734 9.66931 8.23446 9.91248C8.71344 10.2398 9.22059 10.524 9.74991 10.7618C10.0482 10.8989 10.3644 11.024 10.6747 11.1432C10.8818 11.2301 11.1034 11.2776 11.328 11.2833H11.4772C11.6708 11.2497 11.848 11.1533 11.9813 11.0091C12.1792 10.7997 12.3486 10.5652 12.4855 10.3118C12.8267 9.71249 13.1364 9.09579 13.4132 8.46422" fill="#1858A8"/>
<path d="M10.5613 11.9821C10.5033 11.9437 10.4425 11.9098 10.3793 11.8807C9.95268 11.69 9.5231 11.5023 9.09651 11.3026C8.61209 11.0789 8.14797 10.8137 7.70934 10.5099C7.238 10.1822 6.79649 9.81562 6.35796 9.44312C6.16007 9.26469 5.94752 9.1032 5.72254 8.96036C5.56674 8.863 5.38968 8.80473 5.20645 8.79051C4.9946 8.78613 4.78646 8.84642 4.60982 8.96334C4.12003 9.28864 3.67477 9.67632 3.28529 10.1166C3.11525 10.3162 2.95714 10.5248 2.80201 10.7364C2.72374 10.8411 2.67452 10.9646 2.65932 11.0943C2.64413 11.2241 2.66351 11.3556 2.7155 11.4755C2.85436 11.775 3.04411 12.0482 3.27634 12.283C4.27062 13.3111 5.62855 13.9091 7.05901 13.9488C8.08522 13.9727 9.57382 13.5823 10.3882 12.8611C10.5292 12.7311 10.6323 12.5653 10.6865 12.3814C10.7145 12.3077 10.7144 12.2264 10.6864 12.1529C10.6583 12.0793 10.6043 12.0185 10.5344 11.9821" fill="#1858A8"/>
<path d="M5.60026 7.03954C6.08568 6.83028 6.47663 6.4493 6.69807 5.96973C7.22609 4.95952 6.43555 5.05786 6.22971 5.09362C5.90915 5.14569 5.59227 5.21836 5.28106 5.31116C5.11388 5.34281 4.9581 5.41826 4.82969 5.52979C4.70127 5.64131 4.60481 5.78491 4.55018 5.94589C4.48664 6.22052 4.52258 6.50876 4.65161 6.75943C4.9022 7.21536 5.28405 7.15576 5.60026 7.03954Z" fill="#1858A8"/>
<path d="M14.988 7.7584C14.9493 6.93295 14.7762 6.94189 14.7434 6.92699C14.7106 6.91209 14.5913 6.92699 14.4869 7.21008C14.3496 7.52894 14.2512 7.7733 14.114 8.10408C13.9171 8.55107 13.7232 8.99807 13.5173 9.44208C13.2727 9.95464 13.0012 10.4583 12.7477 10.9708C12.6339 11.1931 12.5506 11.4296 12.5001 11.6741C12.4832 11.719 12.4757 11.7669 12.4779 11.8148C12.4801 11.8627 12.4921 11.9097 12.513 11.9529C12.5339 11.996 12.5634 12.0345 12.5996 12.066C12.6358 12.0975 12.6781 12.1213 12.7238 12.136C12.87 12.2045 13.0549 12.3088 13.2041 12.3774C13.263 12.3933 13.3252 12.3926 13.3837 12.3752C13.4422 12.3579 13.4947 12.3245 13.5352 12.279L13.5621 12.2492C14.4939 11.0337 14.9992 9.54563 15 8.01468V7.99084C15 7.91634 15 7.84184 15 7.77032" fill="#1858A8"/>
</svg>
